<svg id="Layer_1" enable-background="new 0 0 512 512" height="512" viewBox="0 0 512 512" width="512" xmlns="http://www.w3.org/2000/svg"><g><path d="m340.083 252.912c-1.026-1.142-2.019-2.315-2.935-3.549-9.741-13.126-29.649-27.363-64.148-27.363-8.37-35.476-17-62.337-17-81.8 0-65.984 51.786-120.2 117.934-120.2 10.946 0 21.385 1.242 31.207 3.556-51.783 13.059-89.141 60.603-89.141 116.644 0 8.591 11.035 57.596 24.083 112.712zm-260.083-125.912c0-48.514 34.684-91.151 86.86-103.444-9.188-2.317-18.826-3.556-28.794-3.556-69.1 0-118.066 49.354-118.066 107 0 25.693 1.371 55.514 4 86 27.402 0 49.004 14.51 58.919 28.572-1.644-53.748-2.919-103.08-2.919-114.572z" fill="#cee1f2"/><path d="m499.604 297.41c-8.282 68.214-18.163 119.919-18.288 120.387-16.309 60.748-54.777 94.203-108.316 94.203-28.188 0-53.612-11.225-71.593-31.606-16.898-19.155-26.204-45.213-26.204-73.372 0-36.634-2.792-72.264-8.535-108.926-1.71-10.913 5.751-21.146 16.663-22.854 10.929-1.708 21.146 5.751 22.854 16.663 6.068 38.732 9.018 76.388 9.018 115.117 0 38.258 23.767 64.978 57.797 64.978 35.03 0 57.769-20.895 69.492-63.864 1.175-6.262 9.829-53.155 17.403-115.546 1.331-10.966 11.3-18.766 22.265-17.444 10.966 1.331 18.776 11.299 17.444 22.264zm12.396-170.41c0 26.479-1.409 56.811-4.074 87.718-.892 10.342-9.546 18.282-19.926 18.282-22.589 0-38.799 13.401-43.71 21.848-12.967 22.299-37.219 36.152-63.29 36.152-23.353 0-46.31-11.388-59.912-29.718-5.345-7.2-18.699-19.282-48.088-19.282-7.074 0-26.926 0-34 0-29.389 0-42.742 12.081-48.087 19.282-13.604 18.331-36.561 29.718-59.913 29.718-26.071 0-50.323-13.853-63.289-36.151-4.912-8.448-21.123-21.849-43.711-21.849-10.38 0-19.034-7.94-19.926-18.282-2.665-30.906-4.074-61.239-4.074-87.718 0-71.215 60.646-127 138.066-127 37.281 0 72.122 14.706 98.105 41.408 7.663 7.875 14.289 16.527 19.828 25.777 5.539-9.25 12.166-17.903 19.828-25.777 25.985-26.702 60.825-41.408 98.107-41.408 77.42 0 138.066 55.785 138.066 127zm-276 13.2c0-55.251-43.933-100.2-97.934-100.2-54.99 0-98.066 38.215-98.066 87 0 20.647.9 43.809 2.622 67.784 28.216 5.487 49.683 22.786 59.667 39.958 5.743 9.876 17.014 16.258 28.711 16.258 10.771 0 21.681-5.321 27.792-13.556 8.642-11.644 27.851-30.228 64.271-34.533 1.058-4.234 2.103-8.341 3.131-12.383 5.262-20.688 9.806-38.554 9.806-50.328zm236-13.2c0-48.785-43.076-87-98.066-87-54.001 0-97.934 44.949-97.934 100.2 0 11.772 4.543 29.634 9.804 50.317 1.029 4.046 2.074 8.157 3.133 12.395 36.421 4.305 55.63 22.889 64.271 34.532 6.112 8.235 17.021 13.556 27.792 13.556 11.697 0 22.968-6.382 28.711-16.259 9.984-17.171 31.451-34.471 59.667-39.958 1.722-23.974 2.622-47.136 2.622-67.783zm-243.331 148.241c-10.921-1.706-21.145 5.751-22.854 16.663-6.068 38.732-9.018 76.388-9.018 115.117 0 38.259-23.767 64.979-57.797 64.979-35.03 0-57.769-20.895-69.492-63.864-1.175-6.262-9.829-53.155-17.403-115.546-1.332-10.965-11.305-18.767-22.265-17.444-10.966 1.331-18.775 11.3-17.444 22.265 8.282 68.214 18.163 119.919 18.288 120.387 16.309 60.747 54.777 94.202 108.316 94.202 28.188 0 53.612-11.225 71.593-31.606 16.898-19.155 26.204-45.213 26.204-73.372 0-36.634 2.792-72.264 8.535-108.926 1.71-10.913-5.751-21.146-16.663-22.855z" fill="#0023c4"/><path d="m377.427 201c-15.858 0-30.62-7.133-39.487-19.081-6.583-8.87-4.729-21.397 4.142-27.979 8.869-6.582 21.396-4.729 27.979 4.142 1.275 1.719 4.305 2.919 7.366 2.919 2.993 0 5.852-1.591 7.283-4.052 5.553-9.549 17.794-12.789 27.343-7.238 9.549 5.552 12.789 17.793 7.237 27.342-8.588 14.771-24.629 23.947-41.863 23.947zm-204.366-20.081c6.582-8.87 4.729-21.396-4.142-27.979-8.871-6.584-21.396-4.73-27.979 4.141-1.658 2.234-4.825 3.919-7.367 3.919-2.994 0-5.854-1.591-7.286-4.054-5.555-9.549-17.797-12.786-27.344-7.234-9.548 5.553-12.787 17.795-7.234 27.344 8.59 14.77 24.631 23.944 41.864 23.944 15.163 0 30.294-7.694 39.488-20.081z" fill="#ff5cf7"/></g></svg>