<svg width="11" height="15" viewBox="0 0 11 15" fill="none" xmlns="http://www.w3.org/2000/svg">
<path d="M5.43244 0C2.43697 0 0 2.43698 0 5.43241C0 9.14981 4.86148 14.6072 5.06848 14.8377C5.26287 15.0543 5.60235 15.0539 5.79639 14.8377C6.00339 14.6072 10.8649 9.14981 10.8649 5.43241C10.8648 2.43698 8.42787 0 5.43244 0ZM5.43244 8.1656C3.92534 8.1656 2.69927 6.93949 2.69927 5.43241C2.69927 3.92532 3.92537 2.69924 5.43244 2.69924C6.93946 2.69924 8.16558 3.92535 8.16558 5.43244C8.16558 6.93955 6.93946 8.1656 5.43244 8.1656Z" fill="white"/>
</svg>
