<svg width="14" height="14" viewBox="0 0 14 14" fill="none" xmlns="http://www.w3.org/2000/svg">
<path d="M13.7278 11.1322L12.1757 10.0975L10.796 9.17784C10.5297 9.00066 10.1718 9.05876 9.9753 9.31107L9.12154 10.4086C8.93814 10.6467 8.60828 10.7152 8.34524 10.5696C7.76597 10.2474 7.08094 9.94395 5.56945 8.43048C4.05796 6.91709 3.75262 6.23399 3.43038 5.65469C3.28478 5.3917 3.35321 5.06181 3.59138 4.87844L4.68891 4.0247C4.94121 3.82815 4.99931 3.47031 4.82216 3.20402L3.93076 1.86679L2.86773 0.272231C2.6868 0.000820857 2.32461 -0.0806624 2.04489 0.0870892L0.818922 0.822569C0.487601 1.01777 0.244054 1.33299 0.138727 1.70286C-0.19653 2.92519 -0.264123 5.62161 4.05722 9.94294C8.3786 14.2643 11.0748 14.1965 12.297 13.8612C12.667 13.7559 12.9822 13.5124 13.1773 13.1811L13.9129 11.955C14.0806 11.6754 13.9991 11.3131 13.7278 11.1322Z" fill="white"/>
</svg>
